<?xml version="1.0" standalone="no"?>
<!DOCTYPE svg PUBLIC "-//W3C//DTD SVG 20010904//EN"
 "http://www.w3.org/TR/2001/REC-SVG-20010904/DTD/svg10.dtd">
<svg version="1.0" xmlns="http://www.w3.org/2000/svg"
 width="241.000000pt" height="209.000000pt" viewBox="0 0 241.000000 209.000000"
 preserveAspectRatio="xMidYMid meet">

<g transform="translate(0.000000,209.000000) scale(0.100000,-0.100000)"
fill="#000000" stroke="none">
<path d="M935 2010 c-3 -5 -2 -10 4 -10 5 0 13 5 16 10 3 6 2 10 -4 10 -5 0
-13 -4 -16 -10z"/>
<path d="M710 1954 c0 -5 -14 -18 -30 -29 -34 -23 -38 -40 -13 -54 14 -8 15
-12 4 -25 -10 -12 -10 -16 -2 -16 8 0 7 -6 -4 -16 -13 -13 -18 -14 -31 -3 -13
10 -14 9 -10 -14 3 -18 1 -24 -8 -21 -7 3 -19 -3 -27 -12 -12 -15 -12 -17 0
-9 10 5 12 4 7 -4 -4 -6 -12 -9 -17 -5 -5 3 -15 1 -22 -4 -7 -6 -15 -11 -19
-11 -5 -1 -8 -4 -9 -8 0 -5 -8 -17 -17 -28 -38 -45 -48 -91 -18 -79 7 3 19 -3
27 -12 12 -14 10 -19 -9 -34 -22 -18 -31 -37 -12 -25 5 3 19 1 30 -5 16 -9 18
-15 10 -30 -7 -13 -7 -21 2 -26 6 -4 14 -2 16 4 2 6 10 8 18 5 8 -3 14 0 14 5
0 6 8 18 17 28 16 16 16 16 -5 10 -17 -6 -21 -4 -16 8 4 9 1 23 -6 31 -18 21
-10 19 55 -15 89 -47 123 -38 130 35 4 46 22 70 41 54 11 -9 15 -7 20 5 12 30
-4 46 -44 46 -23 0 -45 6 -52 15 -20 24 -79 30 -111 11 -36 -22 -37 -14 -1 19
21 20 33 24 57 19 17 -4 34 -13 38 -20 11 -20 26 -17 24 4 -1 18 -5 20 -47 24
-27 3 -25 27 3 37 17 7 24 4 29 -11 4 -11 13 -16 19 -13 6 4 8 13 5 21 -3 9 2
14 14 14 11 0 20 -4 20 -10 0 -5 7 -10 16 -10 8 0 13 -4 9 -9 -3 -5 0 -13 6
-17 8 -5 9 -3 4 6 -6 10 -4 12 8 7 28 -11 20 21 -13 53 -16 16 -32 25 -35 19
-4 -5 -1 -9 6 -9 7 0 9 -3 6 -7 -14 -13 -62 -9 -75 6 -8 9 -11 11 -8 4 4 -6 3
-14 -2 -17 -4 -2 -9 6 -10 19 -1 16 5 26 18 30 24 7 26 23 5 31 -8 4 -12 10
-9 15 9 15 22 10 26 -8 2 -10 13 -18 30 -18 18 -1 25 2 21 12 -3 7 -12 13 -21
13 -8 0 -24 7 -34 17 -10 9 -18 12 -18 7z m0 -56 c0 -6 -6 -5 -15 2 -8 7 -15
14 -15 16 0 2 7 1 15 -2 8 -4 15 -11 15 -16z m-90 -204 c0 -3 -6 -11 -13 -18
-14 -14 -77 -10 -77 5 0 13 38 11 46 -2 5 -8 10 -6 16 5 9 15 28 22 28 10z
m100 -64 c0 -11 -6 -21 -12 -21 -7 -1 1 -5 17 -9 30 -8 30 -8 3 -9 -41 -2 -76
47 -52 72 12 11 44 -13 44 -33z m-70 9 c0 -4 -7 -6 -15 -3 -8 4 -15 10 -15 15
0 4 7 6 15 3 8 -4 15 -10 15 -15z m-100 -74 c0 -8 -4 -15 -10 -15 -5 0 -7 7
-4 15 4 8 8 15 10 15 2 0 4 -7 4 -15z"/>
<path d="M815 1950 c-3 -6 1 -7 9 -4 18 7 21 14 7 14 -6 0 -13 -4 -16 -10z"/>
<path d="M861 1938 c-1 -12 -6 -15 -18 -11 -14 5 -16 4 -7 -8 16 -21 -7 -63
-26 -46 -12 10 -12 9 -1 -5 7 -10 18 -15 23 -12 5 3 16 -2 23 -12 12 -16 14
-17 15 -3 0 9 -7 22 -16 30 -14 12 -14 14 1 25 10 8 15 21 12 36 -2 14 -5 16
-6 6z"/>
<path d="M1041 1917 c-8 -10 -7 -14 4 -14 8 0 15 6 15 14 0 7 -2 13 -4 13 -2
0 -9 -6 -15 -13z"/>
<path d="M1275 1882 c7 -4 5 -18 -6 -40 -12 -23 -19 -29 -25 -21 -4 7 -2 15 4
17 22 7 13 22 -13 22 -14 0 -25 -5 -25 -11 0 -5 -5 -7 -10 -4 -6 3 -17 -1 -26
-9 -14 -14 -14 -16 0 -16 9 0 13 -6 10 -14 -7 -18 24 -15 36 3 6 10 12 9 29
-5 20 -17 30 -41 14 -31 -5 3 -9 -7 -10 -22 -2 -25 0 -26 39 -23 36 4 40 2 34
-13 -5 -15 -4 -16 9 -5 9 8 25 10 42 5 16 -4 22 -10 16 -12 -7 -3 -13 -9 -13
-15 0 -6 11 -3 25 6 30 20 35 20 35 1 0 -9 -10 -15 -26 -15 -17 0 -28 -6 -31
-20 -3 -11 -11 -20 -19 -20 -7 0 -18 -9 -24 -20 -6 -11 -16 -17 -22 -14 -7 4
-8 3 -4 -4 4 -7 1 -12 -8 -12 -10 0 -13 6 -10 15 5 11 2 13 -11 9 -9 -4 -20
-1 -25 5 -5 9 -9 8 -13 -4 -4 -9 -3 -13 3 -10 6 3 10 -1 10 -10 0 -9 4 -14 9
-11 5 3 12 -1 15 -10 10 -26 7 -26 -26 -6 -31 18 -64 20 -53 2 6 -9 -27 -38
-111 -95 -69 -48 -120 -98 -105 -103 14 -5 15 -118 1 -127 -5 -3 -10 -1 -10 4
0 6 -3 10 -7 10 -5 -1 -11 0 -15 1 -20 6 -34 5 -41 -5 -6 -7 -10 -6 -14 3 -2
6 -13 12 -23 12 -16 0 -17 6 -13 43 4 23 10 44 14 45 5 2 9 15 9 28 0 18 5 24
21 24 11 0 18 4 14 9 -3 6 13 11 35 13 22 2 39 8 38 13 -2 6 -9 9 -15 9 -7 -1
-10 3 -7 8 3 5 -7 28 -22 51 -16 23 -27 48 -26 55 4 16 -15 15 -21 -2 -3 -7 3
-26 14 -42 28 -42 25 -56 -8 -43 -15 6 -50 7 -81 3 -48 -6 -56 -10 -65 -35 -9
-22 -19 -29 -49 -34 -45 -8 -68 -36 -68 -85 0 -19 -4 -40 -8 -46 -8 -12 -40
-12 -60 0 -27 16 -10 -9 31 -46 l42 -38 75 6 c41 3 101 13 132 21 65 17 103
12 110 -15 4 -15 12 -18 36 -14 24 3 34 -1 47 -22 12 -18 14 -30 7 -39 -28
-36 -17 -114 22 -147 43 -35 80 -196 52 -220 -14 -11 -33 -108 -27 -140 1 -8
14 -37 28 -65 14 -27 29 -79 33 -113 5 -40 16 -72 28 -85 21 -23 35 -63 38
-111 3 -36 20 -47 61 -40 17 3 45 7 62 8 16 1 38 10 48 19 10 9 36 23 56 32
21 9 42 26 46 38 5 12 18 31 30 41 13 12 21 31 21 52 0 26 5 34 29 42 33 12
45 52 31 101 -8 28 -5 33 31 63 101 83 99 81 99 148 0 37 -6 70 -15 83 -8 13
-13 34 -10 47 2 13 0 29 -6 36 -19 23 71 153 144 209 48 36 92 120 80 151 -5
14 -3 16 11 11 14 -6 17 -3 12 9 -3 8 -6 18 -6 21 0 3 -9 -5 -19 -18 -20 -24
-20 -24 -35 -4 -8 11 -12 22 -10 25 3 2 9 -2 13 -9 7 -11 11 -9 20 7 7 14 17
18 31 15 16 -4 20 0 20 21 0 29 -3 31 -31 15 -11 -6 -30 -12 -41 -14 -12 -3
-25 -10 -29 -16 -5 -8 -8 -8 -11 2 -3 8 -9 10 -19 4 -22 -14 -57 -17 -64 -5
-4 6 -3 10 2 9 45 -8 29 44 -27 91 -22 18 -44 48 -51 67 -6 18 -17 33 -25 33
-8 0 -14 7 -14 15 0 8 -4 15 -10 15 -6 0 -6 -9 0 -26 14 -35 15 -34 -30 -32
-33 1 -40 5 -41 22 -1 17 -2 18 -6 4 -2 -10 -8 -18 -13 -18 -12 0 -40 29 -40
43 0 6 7 2 16 -9 8 -10 13 -13 9 -6 -3 6 -1 12 5 12 6 0 8 5 5 10 -3 6 0 10 7
11 7 0 4 4 -7 9 -18 8 -18 9 -2 9 23 1 45 -20 39 -37 -2 -6 1 -12 7 -12 13 0
32 35 23 44 -3 4 1 4 11 0 18 -7 23 10 11 41 -5 13 -8 14 -15 3 -7 -10 -9 -9
-9 5 0 10 -4 15 -10 12 -5 -3 -10 0 -10 7 0 9 -3 9 -8 2 -4 -6 -18 -7 -32 -4
-21 6 -22 8 -8 14 9 4 14 14 11 22 -3 8 0 14 6 14 19 0 12 38 -11 54 -12 9
-24 12 -28 8 -3 -4 -18 -7 -35 -7 -23 0 -30 4 -30 20 0 15 -6 19 -25 17 -24
-3 -24 -2 -6 13 15 11 16 15 5 15 -8 0 -20 -5 -27 -12 -9 -9 -12 -8 -12 5 0 9
5 17 10 17 20 0 9 28 -12 34 -36 9 -48 7 -48 -9 0 -8 5 -15 11 -15 5 0 7 5 4
10 -3 6 1 10 9 10 23 0 20 -17 -4 -25 -11 -3 -20 -12 -21 -18 0 -7 -4 -3 -8 8
-7 17 -8 17 -13 -7 -3 -15 -1 -25 3 -22 5 3 9 0 9 -5 0 -6 -7 -11 -15 -11 -8
0 -15 -4 -15 -9 0 -15 -33 -22 -42 -9 -14 23 -8 50 12 55 11 3 17 9 14 14 -3
5 2 12 10 15 27 10 18 24 -16 24 -18 0 -28 -4 -23 -8z m75 -126 c0 -3 -4 -8
-10 -11 -5 -3 -10 -1 -10 4 0 6 5 11 10 11 6 0 10 -2 10 -4z m220 0 c0 -2 -7
-6 -15 -10 -8 -3 -15 -1 -15 4 0 6 7 10 15 10 8 0 15 -2 15 -4z m-165 -24 c-3
-3 -11 0 -18 7 -9 10 -8 11 6 5 10 -3 15 -9 12 -12z m116 -160 c-8 -15 -8 -22
2 -25 7 -4 6 -6 -4 -6 -9 -1 -22 6 -29 14 -7 8 -9 15 -4 15 4 0 0 6 -10 13
-17 13 -17 14 -1 31 17 17 19 17 37 -2 16 -16 18 -24 9 -40z m-99 36 c29 2 39
-20 16 -34 -6 -4 -8 -3 -4 4 3 6 1 14 -5 18 -7 4 -9 3 -6 -2 9 -16 -6 -32 -38
-40 l-30 -7 25 21 c14 12 19 21 13 22 -7 0 -13 -4 -13 -10 0 -5 -6 -10 -12
-10 -16 -1 -47 -60 -41 -77 5 -15 43 -18 43 -3 0 6 4 10 8 10 4 0 8 -9 8 -20
0 -11 -4 -20 -8 -20 -4 0 -8 -5 -8 -12 0 -6 9 -3 20 7 12 10 18 25 15 32 -3 9
6 18 26 25 23 8 27 13 17 19 -9 6 -7 9 9 9 27 0 38 -16 17 -24 -8 -3 -12 -11
-9 -16 5 -8 15 -6 30 4 13 9 25 11 27 6 2 -5 13 -11 26 -13 12 -2 27 -8 34
-15 8 -8 4 -11 -18 -9 -20 1 -29 -3 -32 -16 -3 -16 -1 -17 18 -7 16 9 25 9 33
1 15 -15 30 -14 24 2 -3 9 5 14 25 15 28 2 30 0 24 -24 -5 -17 -3 -23 4 -19 5
3 10 12 10 19 0 12 28 25 53 26 14 0 7 -22 -14 -38 -20 -17 -18 -52 3 -52 5 0
7 4 3 9 -3 5 0 13 6 17 8 4 9 3 5 -4 -11 -18 15 -14 28 4 11 14 13 14 26 -1 7
-9 9 -15 4 -14 -5 1 -16 1 -24 0 -13 -1 -13 -2 0 -11 8 -5 11 -12 7 -17 -5 -4
-12 -1 -16 6 -5 7 -14 10 -20 7 -16 -10 -14 -26 3 -26 8 0 18 -4 21 -10 3 -6
-1 -7 -9 -4 -11 4 -16 0 -16 -12 0 -11 -7 -28 -15 -38 -12 -16 -15 -17 -15 -4
0 21 -25 69 -42 79 -7 5 -34 9 -60 9 -36 0 -48 4 -48 15 0 9 6 18 13 21 8 3
14 11 14 19 0 10 -5 11 -19 4 -10 -6 -16 -14 -13 -20 4 -5 1 -9 -5 -9 -6 0 -8
-4 -5 -10 3 -5 -10 -3 -29 5 -63 27 -87 18 -99 -36 -5 -19 -1 -31 13 -45 53
-50 59 -58 54 -66 -3 -5 -11 -4 -19 2 -9 7 -16 6 -26 -6 -12 -15 -14 -14 -20
3 -7 16 -8 16 -8 1 -1 -24 -16 -22 -42 5 -12 12 -18 15 -14 7 7 -13 6 -13 -7
-2 -13 10 -19 10 -31 -2 -8 -8 -17 -12 -21 -9 -3 4 -6 2 -6 -4 0 -13 -63 -13
-72 1 -4 5 -2 18 3 28 13 25 79 25 80 1 0 -11 3 -13 6 -5 2 6 9 9 15 6 5 -3 8
0 6 8 -4 17 43 64 59 60 7 -2 13 0 13 3 0 14 -35 57 -54 66 -18 9 -19 8 -5 -3
11 -9 14 -20 8 -34 -6 -17 -18 -22 -69 -27 -66 -6 -93 -21 -85 -46 2 -9 1 -29
-4 -46 -5 -16 -10 -24 -10 -16 -1 8 -8 11 -20 8 -23 -6 -31 10 -31 56 0 24 3
28 10 17 5 -8 7 -26 4 -40 -5 -23 -4 -23 7 -6 9 14 9 28 1 50 -5 17 -9 52 -7
79 3 39 11 56 45 95 45 50 82 61 108 32 8 -8 11 -10 8 -4 -3 7 1 17 9 24 10 9
15 9 15 1 0 -19 16 -12 17 8 1 15 -3 18 -15 14 -15 -6 -15 -5 -2 11 17 22 51
36 65 28 5 -3 22 -5 37 -4z m-14 -84 c-10 -10 -21 -13 -29 -8 -12 7 0 14 41
23 2 1 -3 -6 -12 -15z m-298 -223 c0 -50 -3 -59 -20 -64 -11 -3 -20 -1 -20 4
0 5 -9 9 -20 9 -16 0 -20 7 -20 32 0 36 33 78 62 78 15 0 18 -9 18 -59z m747
-8 c0 -7 -4 -13 -9 -13 -5 0 -6 -6 -2 -12 4 -7 3 -10 -1 -5 -5 4 -19 0 -32 -8
-21 -14 -23 -14 -23 2 0 10 -3 14 -8 8 -4 -7 -16 -2 -31 12 l-24 23 24 1 c13
1 30 0 38 -1 8 -1 11 4 8 12 -4 12 1 13 27 4 18 -5 33 -16 33 -23z m-170 -5
c-3 -8 -6 -5 -6 6 -1 11 2 17 5 13 3 -3 4 -12 1 -19z m-887 -2 c0 -22 -20 -30
-21 -9 0 14 -2 14 -9 -4 -12 -31 -30 -29 -30 2 0 21 5 25 30 25 19 0 30 -5 30
-14z m879 -31 c0 -5 -4 -3 -9 5 -5 8 -9 22 -9 30 0 16 17 -16 18 -35z m-983 8
c-10 -10 -19 5 -10 18 6 11 8 11 12 0 2 -7 1 -15 -2 -18z m924 -9 c0 -8 -7
-14 -15 -14 -8 0 -15 5 -15 12 0 6 -7 3 -15 -8 -8 -11 -15 -14 -15 -6 0 6 0
15 -1 20 0 8 43 21 54 15 4 -2 7 -11 7 -19z m26 -143 c12 10 13 9 9 -4 -4 -8
-2 -18 4 -22 6 -3 11 1 11 11 0 22 11 12 14 -12 2 -10 -8 -27 -20 -37 -22 -17
-24 -17 -44 3 -16 16 -17 20 -5 20 12 0 15 8 12 33 -2 17 -2 24 0 14 4 -15 7
-16 19 -6z m-36 -65 c0 -2 -8 -10 -17 -17 -16 -13 -17 -12 -4 4 13 16 21 21
21 13z m81 -13 c13 -16 12 -17 -3 -4 -16 12 -18 11 -18 -4 0 -10 -3 -16 -6
-12 -6 6 2 37 9 37 3 0 11 -8 18 -17z m-274 -235 c15 -6 38 -21 51 -32 23 -21
24 -21 38 -2 8 11 14 26 14 34 0 9 11 12 37 10 39 -3 55 -23 26 -32 -10 -3
-26 -20 -36 -37 -9 -17 -31 -36 -48 -42 -31 -12 -31 -12 -25 -71 3 -32 11 -65
17 -72 8 -10 8 -14 1 -14 -6 0 -21 32 -33 70 -13 39 -26 70 -30 70 -4 0 -17
-20 -29 -46 -26 -52 -37 -52 -20 1 14 42 15 41 -27 49 -28 7 -33 4 -47 -23 -9
-16 -16 -39 -16 -51 0 -13 -4 -18 -11 -14 -6 3 -8 18 -5 33 l6 26 -20 -24
c-11 -13 -20 -34 -20 -47 0 -12 -4 -25 -9 -28 -12 -8 -1 75 13 93 5 7 13 34
16 60 4 40 9 48 39 63 19 9 39 22 44 27 14 14 39 14 74 -1z m-114 -238 c3 -11
1 -18 -4 -14 -5 3 -9 12 -9 20 0 20 7 17 13 -6z m63 -6 c-4 -9 -9 -15 -11 -12
-3 3 -3 13 1 22 4 9 9 15 11 12 3 -3 3 -13 -1 -22z"/>
<path d="M1423 1482 c-7 -12 -8 -24 -2 -33 6 -10 9 -10 9 -1 0 6 3 11 8 10 4
0 15 2 25 7 14 6 15 10 6 21 -16 19 -32 18 -46 -4z"/>
<path d="M764 1779 c0 -10 4 -19 8 -19 4 0 8 6 8 14 0 8 -4 17 -8 20 -4 2 -8
-4 -8 -15z"/>
<path d="M910 1764 c0 -23 -7 -42 -17 -51 -16 -12 -15 -13 10 -7 16 4 33 1 42
-6 22 -18 29 -6 12 22 -8 12 -17 35 -21 51 -9 39 -26 33 -26 -9z"/>
<path d="M1110 1740 c-14 -4 -20 -8 -14 -9 6 -1 16 -11 22 -23 8 -18 11 -19
11 -5 1 11 9 17 27 17 23 0 24 2 10 15 -16 16 -19 17 -56 5z"/>
<path d="M1280 1638 c0 -6 3 -8 7 -5 3 4 13 1 21 -6 11 -8 14 -8 9 0 -4 7 0
13 10 16 10 3 3 5 -14 6 -19 1 -33 -4 -33 -11z"/>
<path d="M1615 1550 c-3 -6 1 -13 10 -16 19 -8 30 0 20 15 -8 14 -22 14 -30 1z"/>
<path d="M660 1512 c-24 -11 -24 -42 0 -42 14 0 19 -4 14 -12 -5 -7 -3 -8 5
-3 9 5 10 10 2 18 -14 14 -14 30 -1 22 6 -3 7 1 4 9 -3 9 -7 16 -8 15 0 0 -8
-3 -16 -7z"/>
<path d="M1910 740 c-14 -21 -37 -44 -52 -49 -33 -12 -52 -45 -45 -80 3 -14
-1 -37 -8 -51 -15 -26 -19 -77 -9 -104 6 -16 50 -22 70 -8 7 4 20 30 29 57 70
197 71 200 62 238 -5 20 -12 37 -16 37 -4 0 -18 -18 -31 -40z"/>
</g>
</svg>
